<svg width="34" height="34" viewBox="0 0 34 34" fill="none" xmlns="http://www.w3.org/2000/svg">
<path d="M19.8333 22.6667H22.6666V19.8334H25.4999V17H22.6666V14.1667H19.8333V17H16.9999V19.8334H19.8333V22.6667ZM5.66659 28.3334C4.88742 28.3334 4.22064 28.0562 3.66625 27.5018C3.11092 26.9464 2.83325 26.2792 2.83325 25.5V8.50002C2.83325 7.72085 3.11092 7.05408 3.66625 6.49969C4.22064 5.94435 4.88742 5.66669 5.66659 5.66669H14.1666L16.9999 8.50002H28.3333C29.1124 8.50002 29.7797 8.77769 30.335 9.33302C30.8894 9.88741 31.1666 10.5542 31.1666 11.3334V25.5C31.1666 26.2792 30.8894 26.9464 30.335 27.5018C29.7797 28.0562 29.1124 28.3334 28.3333 28.3334H5.66659Z" fill="#979797"/>
</svg>
